<svg xmlns="http://www.w3.org/2000/svg" xmlns:xlink="http://www.w3.org/1999/xlink" fill="none" version="1.1" width="17.52716827392578" height="15.232625961303711" viewBox="0 0 17.52716827392578 15.232625961303711"><g><path d="M17.043974,0.36462697C16.643175,0.00702703,16.081575,-0.096172929,15.577574,0.093427062L0.93037426,5.6278272C0.38557434,5.8342271,0.027974367,6.3238268,0.0015742779,6.9070272C-0.024825811,7.4902272,0.28237438,8.0110264,0.80797434,8.267828L3.0951741,9.3862267C3.1407738,9.4078264,3.1815741,9.4390268,3.2175744,9.4726267C3.4551742,10.084627,4.3935742,12.482228,4.8111744,13.348629C5.0223742,13.790228,5.4111738,14.099828,5.771174,14.234227C5.7471743,14.231827,5.7207742,14.227029,5.6919737,14.222227C5.7615738,14.248627,5.8335733,14.270227,5.9079733,14.284627C6.3831739,14.380629,6.8703737,14.234227,7.211174,13.891027L8.0631733,13.039029C8.2143736,12.88783,8.4519739,12.854227,8.6391735,12.959826L12.308773,15.043027C12.529572,15.167828,12.774373,15.232626,13.019174,15.232626C13.211174,15.232626,13.405573,15.194226,13.587973,15.115026C14.005574,14.935029,14.307973,14.579827,14.418374,14.138227L17.483173,1.7830274C17.615173,1.2646272,17.444773,0.71982729,17.043974,0.36462697ZM4.1295743,9.1774273L11.982373,4.6846271L7.5495744,9.2254267C7.4775743,9.2998266,7.4247746,9.3838272,7.3887744,9.4822264C7.3863745,9.4870253,7.3863745,9.4894257,7.3839736,9.4942265C7.3743734,9.5230265,6.498374,12.107826,5.9799743,13.276625C5.8743734,13.207026,5.7471743,13.094226,5.6727738,12.938227C5.288774,12.131826,4.3935742,9.8494253,4.1295743,9.1774273Z" fill="#FFFFFF" fill-opacity="1"/></g></svg>