<svg xmlns="http://www.w3.org/2000/svg" xmlns:xlink="http://www.w3.org/1999/xlink" fill="none" version="1.1" width="16" height="16" viewBox="0 0 16 16"><defs><clipPath id="master_svg0_2_1218"><rect x="0" y="0" width="16" height="16" rx="0"/></clipPath></defs><g clip-path="url(#master_svg0_2_1218)"><g><path d="M14.784616,6.9230771L13.061539,1.75384617C12.953846,1.32307693,12.523077,1,12.092307,1L3.9076924,1C3.4769232,1,3.046154,1.32307693,2.9384614,1.75384617L1.21538462,6.9230771C1.10769231,7.0307693,1,7.2461538,1,7.4615383L1,13.384616C1,14.246155,1.75384617,15,2.6153846,15L13.384616,15C14.246155,15,15,14.246154,15,13.384615L15,7.4615383C15,7.2461538,14.892307,7.0307693,14.784616,6.9230771ZM3.9076924,2.0769231L12.092308,2.0769231L13.492309,6.3846154L10.476923,6.3846154L9.9384613,4.0153847C9.8307686,3.4769232,9.3999996,3.1538463,8.9692311,3.1538463L7.0307693,3.1538463C6.4923077,3.1538463,6.0615387,3.4769232,5.9538465,4.0153847L5.523077,6.3846154L2.5076923,6.3846154L3.9076924,2.0769231ZM6.3846154,7.4615383L9.6153851,7.4615383L9.6153851,9.6153851L6.3846154,9.6153851L6.3846154,7.4615383ZM6.5999999,6.3846154L7.0307693,4.2307692L8.8615384,4.2307692L9.2923079,6.3846154L6.5999999,6.3846154ZM13.923078,13.384616C13.923078,13.707693,13.707693,13.923078,13.384616,13.923078L2.6153849,13.923078C2.2923081,13.923078,2.0769234,13.707693,2.0769234,13.384616L2.0769234,7.4615383L5.307693,7.4615383L5.307693,9.6153851C5.307693,10.2615385,5.738462,10.6923084,6.3846159,10.6923084L9.6153851,10.6923084C10.2615385,10.6923084,10.6923084,10.2615385,10.6923084,9.6153851L10.6923084,7.4615383L13.923077,7.4615383L13.923078,13.384616Z" fill="currentColor" fill-opacity="1" style="mix-blend-mode:passthrough"/></g></g></svg>