<svg xmlns="http://www.w3.org/2000/svg" xmlns:xlink="http://www.w3.org/1999/xlink" fill="none" version="1.1" width="15.466667175292969" height="16.000001907348633" viewBox="0 0 15.466667175292969 16.000001907348633"><g><path d="M0.5333333,14.4C0.23878157,14.400001,0,14.161219,0,13.866667L0,2.1333334C-2.9802322e-8,1.8387816,0.23878139,1.6000001,0.5333333,1.6000001L1.8666668,1.6000001L1.8666668,0L2.6666667,0L2.6666667,1.6L4,1.6C4.2945518,1.5999999,4.5333333,1.8387814,4.5333333,2.1333332L4.5333333,3.1999998L6.6666665,3.1999998L6.6666665,2.1333334C6.6666665,1.8387816,6.905448,1.6000001,7.1999998,1.6000001L14.933333,1.6000001C15.227885,1.6000001,15.466667,1.8387816,15.466667,2.1333334L15.466667,4.8000002C15.466668,5.094552,15.227886,5.3333335,14.933334,5.3333335L7.1999998,5.3333335C6.905448,5.3333335,6.6666665,5.094552,6.6666665,4.8000002L6.6666665,4L4.5333333,4L4.5333333,7.7333336L6.6666665,7.7333336L6.6666665,6.666667C6.6666665,6.3721151,6.905448,6.1333337,7.1999998,6.1333337L14.933333,6.1333337C15.227885,6.1333337,15.466667,6.3721151,15.466667,6.666667L15.466667,9.333334C15.466668,9.6278858,15.227887,9.8666677,14.933334,9.8666677L7.1999998,9.8666677C6.905448,9.8666687,6.6666665,9.6278868,6.6666665,9.333334L6.6666665,8.5333338L4.5333333,8.5333338L4.5333333,12.266667L6.6666665,12.266667L6.6666665,11.200001C6.666667,10.905449,6.9054484,10.666668,7.1999998,10.666668L14.933333,10.666668C15.227886,10.666669,15.466667,10.90545,15.466667,11.200001L15.466667,13.866668C15.466668,14.16122,15.227886,14.400002,14.933334,14.400002L7.1999998,14.400002C6.905448,14.400001,6.6666665,14.16122,6.6666665,13.866669L6.6666665,13.066669L4.5333333,13.066669L4.5333333,13.866669C4.5333328,14.161221,4.2945514,14.400002,4,14.400002L2.6666667,14.400002L2.6666667,16.000002L1.8666668,16.000002L1.8666668,14.400002L0.5333333,14.4ZM14.666667,11.466666L7.4666662,11.466666L7.4666662,13.599999L14.666666,13.599999L14.666667,11.466666ZM14.0288,11.794666C14.1472,11.892533,14.168,12.073866,14.075733,12.199467L13.3224,13.2224C13.266117,13.301168,13.171301,13.342899,13.0752,13.3312C13.005232,13.335418,12.936512,13.311293,12.884533,13.264266L12.363733,12.800532C12.248488,12.694415,12.233987,12.517611,12.3304,12.394133C12.423105,12.272591,12.599882,12.256219,12.713333,12.358666L13.048533,12.657333L13.6472,11.844C13.735355,11.718946,13.911606,11.696038,14.0288,11.7944L14.0288,11.794666ZM14.666667,6.9333334L7.4666662,6.9333334L7.4666662,9.0666666L14.666666,9.0666666L14.666667,6.9333334ZM12.7192,7.2466669L12.744267,7.2688003L13.066667,7.5911999L13.389067,7.2687998C13.4932,7.1646976,13.662001,7.1646976,13.766133,7.2687998L13.797867,7.3005333C13.901968,7.4046669,13.901968,7.5734663,13.797867,7.6775999L13.475467,8L13.797867,8.3224001C13.892862,8.4174051,13.902347,8.568244,13.82,8.6744003L13.797867,8.6994667L13.766133,8.7312002C13.671128,8.8261967,13.520288,8.8356819,13.414133,8.7533331L13.389067,8.7312002L13.066667,8.4088001L12.744267,8.7312002C12.640133,8.8353024,12.471333,8.8353024,12.3672,8.7312002L12.335466,8.6994667C12.231365,8.5953331,12.231365,8.4265337,12.335466,8.3224001L12.657866,8L12.335466,7.6775999C12.24047,7.5825953,12.230986,7.4317555,12.313334,7.3255997L12.335466,7.3005328L12.3672,7.2687993C12.462205,7.1738033,12.613044,7.1643186,12.7192,7.2466669ZM14.666667,2.4000001L7.4666662,2.4000001L7.4666662,4.5333338L14.666666,4.5333338L14.666667,2.4000001ZM14.0288,2.7280002C14.1472,2.8258669,14.168,3.0072002,14.075733,3.1328001L13.3224,4.1557336C13.266116,4.2345014,13.171301,4.2762322,13.0752,4.2645335C13.005232,4.2687511,12.936512,4.244627,12.884533,4.1976004L12.363733,3.7338672C12.248488,3.6277494,12.233987,3.4509454,12.3304,3.3274672C12.423106,3.2059255,12.599882,3.1895528,12.713333,3.2920005L13.048533,3.5906672L13.6472,2.777334C13.735355,2.6522813,13.911606,2.6293726,14.0288,2.7277341L14.0288,2.7280002Z" fill="#0256FF" fill-opacity="1"/></g></svg>