<svg xmlns="http://www.w3.org/2000/svg" xmlns:xlink="http://www.w3.org/1999/xlink" fill="none" version="1.1" width="16" height="16" viewBox="0 0 16 16"><defs><clipPath id="master_svg0_2_1183"><rect x="0" y="0" width="16" height="16" rx="0"/></clipPath></defs><g clip-path="url(#master_svg0_2_1183)"><g><path d="M7.999990504296875,1.8184481625C11.414114404296875,1.8184482625,14.181808404296875,4.5861425625,14.181808404296875,8.0002665625C14.181808404296875,11.4143900625,11.414114404296875,14.1820840625,7.999990504296875,14.1820840625C4.585866704296874,14.1820840625,1.818172504296875,11.4143900625,1.818172504296875,8.0002665625C1.818172204296875,4.5861425625,4.585866204296876,1.8184482625,7.999990504296875,1.8184481625ZM7.999990504296875,0.7275390625C3.983374804296875,0.72753924131393,0.727264404296875,3.9836501625,0.727264404296875,8.0002665625C0.727264404296875,12.0168830625,3.983375304296875,15.2729930625,7.999991404296875,15.2729930625C12.016608404296875,15.2729930625,15.272719404296875,12.0168830625,15.272718404296874,8.0002665625C15.272719404296875,3.9836501625,12.016607404296876,0.72753930091858,7.999990504296875,0.7275390625Z" fill="currentColor" fill-opacity="1"/></g><g><path d="M6.0000095385937495,14.726895375C5.69876336859375,14.726896375,5.45455503463775,14.482686975,5.45455503463775,14.181440375L5.45455503463775,5.272349835C5.45065736769375,4.864869115,5.88106822859375,4.599085805,6.24364614859375,4.785077095L11.58910080859375,7.457804675C11.77323720859375,7.550435975,11.889430008593749,7.7389540750000005,11.889430008593749,7.945077375C11.889430008593749,8.151200275,11.77323720859375,8.339718775,11.58910080859375,8.432350175L6.5454640085937505,10.955985975L6.5454640085937505,14.181440375C6.54546500859375,14.482686975,6.30125617859375,14.726895375,6.0000095385937495,14.726895375ZM6.5454640085937505,6.155985875L6.5454640085937505,9.734167075L10.12728210859375,7.945075975L6.5454640085937505,6.155985875Z" fill="currentColor" fill-opacity="1"/></g></g></svg>