<svg xmlns="http://www.w3.org/2000/svg" xmlns:xlink="http://www.w3.org/1999/xlink" fill="none" version="1.1" width="11.934896469116211" height="13.374876976013184" viewBox="0 0 11.934896469116211 13.374876976013184"><g><path d="M11.36273,3.5397336L11.36273,10.986662C11.36273,12.305636,10.29349,13.374876,8.974515,13.374877L2.9652917,13.374877C1.646317,13.374876,0.57707751,12.305636,0.57707769,10.986662L0.57707769,3.5397336C0.2565043,3.5332789,0,3.2715578,0,2.9509194C1.9929847e-7,2.630281,0.25650451,2.3685598,0.57707769,2.3621051L0.57707769,2.3609109L3.1444077,2.3609109C3.3913138,0.99412167,4.5811114,0,5.9700232,0C7.3589349,-9.9077518e-8,8.5487328,0.99412161,8.7956381,2.3609109L11.36273,2.3609109L11.36273,2.362344C11.68133,2.3714178,11.934896,2.6323092,11.934896,2.9510388C11.934896,3.2697685,11.68133,3.5306602,11.36273,3.5397336ZM5.9699044,1.1808944C5.2311816,1.186687,4.5775223,1.6606019,4.3423367,2.3609109L7.5974722,2.3609109C7.3622866,1.6606019,6.7086272,1.1866871,5.9699044,1.1808944ZM10.207074,3.5409276L1.7327343,3.5409276L1.7327343,10.761931C1.7327343,11.553316,2.3742781,12.19486,3.1656628,12.19486L8.7741451,12.19486C9.5655308,12.19486,10.207075,11.553316,10.207074,10.761931L10.207074,3.5411663L10.207074,3.5409276ZM7.3173351,9.8345881C6.9982748,9.8345881,6.7396259,9.5759392,6.7396259,9.2568789L6.7396259,6.4789085C6.7396269,6.1597824,6.9983292,5.9010797,7.3174553,5.9010797C7.6365809,5.9010797,7.8952837,6.1597829,7.8952832,6.4789085L7.8952832,9.2568789C7.8954153,9.5758457,7.6370187,9.8345633,7.3180518,9.8348274L7.3173351,9.8345881ZM4.6210413,9.8345881C4.301981,9.8345881,4.0433321,9.5759392,4.0433321,9.2568789L4.0433321,6.4789085C4.0433321,6.1597829,4.3020349,5.9010797,4.6211605,5.9010797C4.9402862,5.9010797,5.1989894,6.1597829,5.1989894,6.4789085L5.1989894,9.2568789C5.1991215,9.5758457,4.9407248,9.8345633,4.621758,9.8348274L4.6210413,9.8345881Z" fill="#CE1818" fill-opacity="1" style="mix-blend-mode:passthrough"/></g></svg>