<svg xmlns="http://www.w3.org/2000/svg" xmlns:xlink="http://www.w3.org/1999/xlink" fill="none" version="1.1" width="16" height="16" viewBox="0 0 16 16"><defs><clipPath id="master_svg0_1_2352"><rect x="0" y="0" width="16" height="16" rx="0"/></clipPath></defs><g clip-path="url(#master_svg0_1_2352)"><g><path d="M5.4445719319580075,1.46972739696503C5.775949031958008,1.46931731701,6.091188431958008,1.6127598325,6.308571831958008,1.8628702125L7.486857431958008,3.2228703625C7.517955731958008,3.2585220625,7.562977331958008,3.2789485625,7.610285731958008,3.2788703625L12.571429631958008,3.2788703625C13.202611631958009,3.2788705625,13.714285631958008,3.7905447625,13.714286631958007,4.4217274625L13.714286631958007,5.3885843625L14.857143631958008,5.3885843625C15.153021631958008,5.388115662500001,15.381571631958009,5.6483936625,15.342857631958008,5.9417276625L14.402285631958009,13.2102985625C14.327727631958007,13.7789615625,13.843242631958008,14.2042905625,13.269714631958008,14.2045845625L2.7302861319580076,14.2045845625C2.156375531958008,14.2042145625,1.6717490319580077,13.7782705625,1.5977147819580078,13.2091555625L0.6571433544580079,5.9405841625C0.6200098989580078,5.6479291625,0.8478566419580078,5.3889882625,1.1428577919580079,5.3885843625L2.2857150319580075,5.3885843625L2.2857150319580075,2.6125845625C2.2857147319580076,1.9814018025,2.7973895319580078,1.46972727775574,3.428572131958008,1.46972739696503L5.4445719319580075,1.46972739696503ZM3.2651434319580077,5.387441862499999L12.734858631958009,5.387441862499999L12.734858631958009,4.4205849624999995C12.734520631958008,4.342051762500001,12.678369631958008,4.2748629625,12.601143631958008,4.260585062500001L12.571429631958008,4.257156162499999L7.611429231958008,4.257156162499999C7.280052231958008,4.2575666625,6.964812231958008,4.1141240625,6.747429331958008,3.8640131625L5.568000331958008,2.5051560625000002C5.537375931958008,2.4693789525,5.492805931958007,2.4485518925000003,5.445714431958008,2.4480130625L3.428572131958008,2.4480130625C3.337864831958008,2.4480109225,3.264509231958008,2.5218794625000003,3.2651434319580077,2.6125845625L3.2651434319580077,5.387441862499999ZM2.773715031958008,6.3668708625L1.6994291319580077,6.3668708625L2.5680004319580076,13.0822995625C2.577662331958008,13.1536635625,2.632898731958008,13.2102925625,2.7040004319580078,13.2217275625L2.7302861319580076,13.2240135625L13.269715631958007,13.2240135625C13.351262631958008,13.2235955625,13.420023631958008,13.1631255625,13.430858631958008,13.0822995625L14.299429631958008,6.3668708625L2.773715031958008,6.3668708625ZM5.550857531958008,8.0240135625C5.538081631958008,7.7622661625,5.7333975319580075,7.5367469625,5.994286031958008,7.5120134625L6.040000431958008,7.5097274625L9.960001031958008,7.5097274625C10.221280131958007,7.5105543625,10.436005631958007,7.7161311625,10.448202131958007,7.9771261625C10.460398631958007,8.2381210625,10.265778531958007,8.4628257625,10.005715331958008,8.4880132625L9.960001031958008,8.490299262499999L6.040000431958008,8.490299262499999C5.779210131958008,8.4893960625,5.5647654319580075,8.2844943625,5.552000531958008,8.0240135625L5.550857531958008,8.0240135625Z" fill="currentColor" fill-opacity="1" style="mix-blend-mode:passthrough"/></g></g></svg>