<svg xmlns="http://www.w3.org/2000/svg" xmlns:xlink="http://www.w3.org/1999/xlink" fill="none" version="1.1" width="18" height="18" viewBox="0 0 18 18"><defs><clipPath id="master_svg0_4_1566"><rect x="0" y="0" width="18" height="18" rx="0"/></clipPath></defs><g clip-path="url(#master_svg0_4_1566)"><g><path d="M1.7279462190625,9.495258375L1.7683759890625002,9.532172175L7.8381023390625,12.856196375C8.147477139062499,13.114594975,8.5500164390625,13.256977075,8.9736490390625,13.256977075C9.3972816390625,13.256977075,9.7998209390625,13.114594975,10.1091957390625,12.856196375L16.1701325390625,9.537446475L16.1789215390625,9.532173175L16.2193505390625,9.495259475000001C16.8310695390625,8.945064475,16.9048975390625,8.053853275,16.3916165390625,7.421040773C16.3617335390625,7.3841266036,16.3054835390625,7.377095461,16.2685695390625,7.408735871L15.6761865390625,7.890376385C15.6392725390625,7.920259415,15.6322415390625,7.976509095,15.6638825390625,8.013423265C15.8502095390625,8.241938885,15.8343895390625,8.549555975,15.6269685390625,8.764009475L9.5748214390625,12.077484175L9.5660324390625,12.082757475000001L9.5256023390625,12.119671375C9.2267742390625,12.388616575,8.720524739062501,12.388616575,8.4216966390625,12.119671375L8.3812670390625,12.082757475000001L2.3220874390625,8.764007775C2.1146655090625,8.549554475,2.0988452990625,8.241937275,2.2851733390625,8.013421655C2.3150560390625,7.976507485,2.3097825390624998,7.920257805,2.2728686390624997,7.890374775L1.6804858790625001,7.408734262C1.6435718490625,7.3788512349,1.5873217590625,7.3841249943,1.5574389990625,7.421039164C1.0406420990625,8.052093745,1.1162280890625,8.945062275,1.7279462190625,9.495258375Z" fill="#0256FF" fill-opacity="1"/></g><g><path d="M16.268557287109374,10.6931152625L15.676174287109376,11.1747560625C15.639261287109376,11.2046394625,15.632229287109375,11.2608890625,15.663870287109376,11.2978029625C15.850197287109374,11.5263185625,15.834377287109374,11.8339355625,15.626956287109374,12.0483895625L9.574808087109375,15.3618655625L9.566019087109375,15.3671385625L9.525588987109375,15.4040525625C9.226760887109375,15.6729975625,8.720511387109376,15.6729975625,8.421683287109374,15.4040525625L8.381253687109375,15.3671385625L2.322073787109375,12.0483895625C2.114651917109375,11.8339355625,2.098831657109375,11.5263185625,2.285159587109375,11.2978029625C2.315042387109375,11.2608890625,2.309768887109375,11.2046394625,2.2728550871093747,11.1747560625L1.680472257109375,10.6931152625C1.643558207109375,10.6632318625,1.5873081371093751,10.6685056625,1.5574253771093751,10.7054204625C1.044144127109375,11.3364753625,1.117972255109375,12.2294435625,1.729691027109375,12.7796395625L1.7701207971093749,12.8165525625L7.839846587109375,16.1405765625C8.149221887109375,16.3989755625,8.551760687109375,16.5413575625,8.975393787109375,16.5413575625C9.399026887109375,16.5413575625,9.801565187109375,16.3989755625,10.110940887109376,16.1405765625L16.171878287109376,12.8218265625L16.180667287109372,12.8165535625L16.221096287109376,12.7796405625C16.832815287109376,12.2294445625,16.906643287109375,11.3382339625,16.393362287109376,10.7054214625C16.361721287109376,10.6685075625,16.307228287109375,10.6614761625,16.268557287109374,10.6931152625ZM2.040823157109375,6.5499510625L2.998830987109375,7.0737790625L8.107034187109374,9.8704595625C8.585159287109375,10.3011236625,9.362112987109375,10.3011236625,9.840236687109375,9.8704595625L14.948440287109374,7.0737790625L15.906448287109376,6.5499510625C15.952151287109375,6.5095214625,15.992582287109375,6.4655761625,16.029495287109377,6.4198732625C16.379301287109374,5.9892091625,16.340628287109375,5.3810059625,15.906448287109376,4.9907717625L9.840236687109375,1.7458496125C9.362112087109375,1.3151855425,8.585158787109375,1.3151855425,8.107033687109375,1.7458496125L2.040823157109375,4.9907712625C1.608401297109375,5.3810059625,1.567971557109375,5.9874510625,1.9177762871093749,6.4198732625C1.9564480771093749,6.4655761625,1.995120047109375,6.5095214625,2.040823157109375,6.5499510625Z" fill="#0256FF" fill-opacity="1"/></g></g></svg>