<svg xmlns="http://www.w3.org/2000/svg" xmlns:xlink="http://www.w3.org/1999/xlink" fill="none" version="1.1" width="13.481151580810547" height="13.997781753540039" viewBox="0 0 13.481151580810547 13.997781753540039"><g><path d="M11.824,11.614781L13.328501,13.119282C13.529578,13.313482,13.532373,13.634817,13.334704,13.832486C13.137035,14.030154,12.815701,14.027359,12.621501,13.826282L10.970001,12.174782C8.6613426,13.24474,6.0187421,11.571691,5.9983978,9.0272264C5.9780536,6.4827619,8.593565,4.7676721,10.919037,5.8005767C13.244509,6.8334818,13.725533,9.9239578,11.824,11.614781ZM9.5890007,4.4987812C9.1609507,4.4899149,8.7338219,4.5421066,8.3205004,4.6537814C7.9254999,4.3437815,7.4785004,4.1312814,7,4.0437813L7,5.2557812C6.6227245,5.5083876,6.2856154,5.8163362,6,6.169281L6,4.0427818C4.3039999,4.3547816,3,6.2302818,3,8.497282C3,10.764282,4.3039999,12.639782,6,12.951782L6,11.825782C6.2856154,12.178727,6.6227245,12.486676,7,12.739282L7,12.951781C7.0834999,12.936781,7.1665001,12.916781,7.2480001,12.894281C7.652277,13.128485,8.090765,13.297873,8.5475006,13.396281C7.9335003,13.780782,7.2375002,13.997782,6.5,13.997782C4.9309998,13.997782,3.5489998,13.016282,2.744,11.527781C2.1123977,11.368867,1.4998531,11.846495,1.5,12.497782C1.5,12.773924,1.2761424,12.997782,1,12.997782C0.72385764,12.997782,0.5,12.773924,0.5,12.497782C0.4999764,11.466795,1.2836761,10.604725,2.3099999,10.506782C2.1533167,10.017104,2.0552979,9.5105619,2.0179999,8.9977818L0.5,8.9977818C0.22385764,8.9977818,0,8.7739239,0,8.4977818C0,8.2216396,0.22385764,7.9977818,0.5,7.9977818L2.0184999,7.9977818C2.0574999,7.4697819,2.1574998,6.9627819,2.3094997,6.4887819C1.2833738,6.3905973,0.49995148,5.528594,0.5,4.4977818C0.5,4.2216392,0.72385764,3.9977818,1,3.9977818C1.2761424,3.9977818,1.5,4.2216392,1.5,4.4977818C1.4998534,5.1490688,2.1123977,5.6266961,2.744,5.467782C3.0139999,4.9687819,3.3484998,4.526782,3.7335,4.1597819C2.9048376,2.1829443,4.3567553,0,6.5002503,0C8.6437454,-1.1920929e-7,10.095662,2.1829438,9.2670002,4.1597819C9.3785,4.2667818,9.4864998,4.3797817,9.5895004,4.4987822L9.5890007,4.4987812ZM11.406501,4.9202814C11.466501,4.7922816,11.500001,4.6487813,11.500001,4.4977813C11.500001,4.2216387,11.723859,3.9977813,12.000001,3.9977813C12.276143,3.9977813,12.500001,4.2216387,12.500001,4.4977813C12.500001,4.8402815,12.414001,5.1627812,12.262001,5.4447813C11.997438,5.2386317,11.710657,5.0627055,11.407001,4.9202814L11.406501,4.9202814ZM4.5710001,3.527782C5.1554947,3.1828752,5.8213334,2.9999332,6.5,2.9977818C7.1899996,2.9977818,7.8444996,3.1877818,8.4289999,3.5277815C8.7770586,2.2547865,7.8197193,0.99917829,6.5,0.99778187C5.1794243,0.99744964,4.2210474,2.2544188,4.5710001,3.527782ZM9.5,11.497782C10.880712,11.497782,12,10.378493,12,8.9977818C12,7.6170702,10.880712,6.4977818,9.5,6.4977818C8.1192884,6.4977818,7,7.6170702,7,8.9977818C7,10.378493,8.1192884,11.497782,9.5,11.497782Z" fill="currentColor" fill-opacity="1" style="mix-blend-mode:passthrough"/></g></svg>
