<svg xmlns="http://www.w3.org/2000/svg" xmlns:xlink="http://www.w3.org/1999/xlink" fill="none" version="1.1" width="16" height="16" viewBox="0 0 16 16"><defs><clipPath id="master_svg0_1_2292"><rect x="0" y="0" width="16" height="16" rx="0"/></clipPath></defs><g clip-path="url(#master_svg0_1_2292)"><g><path d="M11.06399609375,15.3282578125L2.55599609375,15.3282578125C1.63999605375,15.3282578125,0.89599609375,14.5842568125,0.89599609375,13.6682578125L0.89599609375,2.5242578125C0.89599609375,1.6082577725,1.63999617375,0.8642578125,2.55599609375,0.8642578125L11.06399609375,0.8642578125C11.93199609375,0.8642578125,12.72399609375,1.5602577924999999,12.72399609375,2.3242577124999997L12.72399609375,13.4682578125C12.72399609375,14.5442578125,12.02399609375,15.3282578125,11.06399609375,15.3282578125ZM2.55599609375,1.8242578525000002C2.17199599375,1.8242578525000002,1.85599601375,2.1402579125,1.85599601375,2.5242578125L1.85599601375,13.6682578125C1.85599601375,14.0522578125,2.17199599375,14.3682578125,2.55599609375,14.3682578125L11.06399609375,14.3682578125C11.48399609375,14.3682578125,11.76399609375,14.0082578125,11.76399609375,13.4682578125L11.76399609375,2.3242577124999997C11.76399609375,2.1562577125,11.45999609375,1.8242577325,11.06399609375,1.8242577325L2.55599609375,1.8242578525000002Z" fill="currentColor" fill-opacity="1"/></g><g><path d="M8.107995061328126,9.695672075000001L3.555995461328125,9.695672075000001C3.291995521328125,9.695672075000001,3.075995445328125,9.479672475000001,3.075995445328125,9.215672475C3.075995445328125,8.951672575,3.291995521328125,8.735672975,3.555995461328125,8.735672975L8.107995061328126,8.735672975C8.371994961328124,8.735672975,8.587994561328125,8.951672575,8.587994561328125,9.215672475C8.587994561328125,9.479672475000001,8.371994961328124,9.695672075000001,8.107995061328126,9.695672075000001ZM6.747995661328125,12.075672175L3.555995461328125,12.075672175C3.291995521328125,12.075672175,3.075995445328125,11.859672575,3.075995445328125,11.595672575C3.075995445328125,11.331672675,3.291995521328125,11.115673075,3.555995461328125,11.115673075L6.747995661328125,11.115673075C7.011995561328125,11.115673075,7.227995861328125,11.331672675,7.227995861328125,11.595672575C7.227995861328125,11.859672575,7.011995561328125,12.075672175,6.747995661328125,12.075672175ZM9.483995461328124,6.915671575L4.059995411328125,6.915671575C3.511995551328125,6.915671575,3.063995361328125,6.467671675,3.063995361328125,5.919671774999999L3.063995361328125,4.259671925C3.063995361328125,3.711672065,3.511995311328125,3.263671875,4.059995411328125,3.263671875L9.483994461328125,3.263671875C10.031994861328126,3.263671875,10.479994761328125,3.711671825,10.479994761328125,4.259671925L10.479994761328125,5.919671774999999C10.479994761328125,6.467671675,10.031994861328126,6.915671575,9.483995461328124,6.915671575ZM4.059995891328125,4.223671675C4.039995911328125,4.223671675,4.023996111328125,4.239671465,4.023996111328125,4.259671445L4.023996111328125,5.919671774999999C4.023996111328125,5.939671775,4.039995911328125,5.955671575,4.059995891328125,5.955671575L9.483995461328124,5.955671575C9.503995861328125,5.955671575,9.519995661328124,5.939671775,9.519995661328124,5.919671774999999L9.519995661328124,4.259671925C9.519995661328124,4.2396719449999996,9.503995861328125,4.223672155,9.483995461328124,4.223672155L4.059995891328125,4.223671675ZM14.015995361328125,15.319671875L10.135994861328125,15.319671875C9.871994961328124,15.319671875,9.655995361328124,15.103671875,9.655995361328124,14.839671875C9.655995361328124,14.575671875,9.871994961328124,14.359672875,10.135994861328125,14.359672875L14.015995361328125,14.359672875C14.151994361328125,14.359672875,14.259995361328125,14.247671875,14.259995361328125,14.115671875L14.259995361328125,6.811671475C14.259995361328125,6.675671375,14.147995361328125,6.567671575,14.015995361328125,6.567671575L12.275995261328125,6.567671575C12.011995361328125,6.567671575,11.795995761328125,6.351671475,11.795995761328125,6.0876714750000005C11.795995761328125,5.8236715750000005,12.011995361328125,5.607671475,12.275995261328125,5.607671475L14.015995361328125,5.607671475C14.679994361328125,5.607671475,15.219994361328125,6.147671475,15.219994361328125,6.811671475L15.219994361328125,14.111671875C15.223994361328124,14.779671875,14.679994361328125,15.319671875,14.015995361328125,15.319671875Z" fill="currentColor" fill-opacity="1"/></g></g></svg>