<svg xmlns="http://www.w3.org/2000/svg" xmlns:xlink="http://www.w3.org/1999/xlink" fill="none" version="1.1" width="18" height="18" viewBox="0 0 18 18"><defs><clipPath id="master_svg0_4_0526"><rect x="0" y="0" width="18" height="18" rx="0"/></clipPath></defs><g clip-path="url(#master_svg0_4_0526)"><g><path d="M15.578981689453125,5.0759277578125L14.399981689453124,3.6899275578125L13.391980689453124,2.5739277578125C12.967531689453125,2.0819406478125,12.349756289453126,1.7993420362425,11.699980689453126,1.79992769658566L4.940981889453125,1.79992769658566C3.7033115894531248,1.7999279648066,2.699981957674025,2.8032576578125,2.699981689453125,4.0409276578124995L2.699981689453125,14.4989267578125C2.699981957674025,15.7365967578125,3.7033115894531248,16.739926757812498,4.940981889453125,16.739926757812498L13.940982689453126,16.739926757812498C15.178651689453124,16.739926757812498,16.181980689453127,15.7365967578125,16.181980689453127,14.4989267578125L16.181980689453127,6.5609273578125C16.173492689453127,6.0079913578125,15.958385689453126,5.4782488578125,15.578981689453125,5.0759277578125ZM11.870982189453125,9.7379274578125L9.449981189453126,12.7259277578125C9.312369789453125,12.8992327578125,9.104251889453124,13.0016407578125,8.882980789453125,13.0049277578125C8.663501289453125,13.0085357578125,8.453290489453124,12.9165667578125,8.306981089453124,12.7529277578125L6.992980989453125,11.2589282578125C6.771410489453125,10.9489021578125,6.818716489453125,10.5217924578125,7.102761789453125,10.2677678578125C7.386806489453125,10.0137433578125,7.816527889453125,10.0142431578125,8.099981289453126,10.2689275578125L8.828980889453124,11.0969276578125L10.709980989453125,8.801927557812501C10.924090389453125,8.3868045578125,11.462382289453124,8.2677936578125,11.831541089453125,8.5539626578125C12.200698889453125,8.8401307578125,12.219626389453126,9.3910975578125,11.870980289453126,9.7019281578125L11.870982189453125,9.7379274578125ZM12.410982089453125,6.4349279578125C11.913925189453124,6.4349288578125,11.510980589453125,6.0319843578125,11.510980589453125,5.5349278578125L11.510980589453125,2.8349276578125L14.885980689453126,6.4349279578125L12.410982089453125,6.4349279578125Z" fill="#0256FF" fill-opacity="1"/></g></g></svg>